# xmcd
#
# Track frame offsets:
#	150
#	13370
#	29120
#	41715
#	51400
#	62047
#	77967
#	90010
#	98242
#	112622
#	130140
#	145675
#
# Disc length: 2057 seconds
#
# Revision: 0
# Processed by: cddbd v1.5.2PL0 Copyright (c) Steve Scherf et al.
# Submitted via: EasyCDDAExtractor 10.2.0.1
#
DISCID=9d08070c
DTITLE=The Dixie Echoes - River Of Love
DYEAR=1999
DGENRE=Gospel
TTITLE0=Without Wings
TTITLE1=River Of Love
TTITLE2=Temporary Things
TTITLE3=Going To The Well
TTITLE4=Heavens Echoes
TTITLE5=I'll See You In The Rapture
TTITLE6=My Names In The Book
TTITLE7=God Made A Way
TTITLE8=What God Says
TTITLE9=He Looked Through The Pain
TTITLE10=My Sins Weighted More
TTITLE11=All Cleaned Up
EXTD=
EXTT0=
EXTT1=
EXTT2=
EXTT3=
EXTT4=
EXTT5=
EXTT6=
EXTT7=
EXTT8=
EXTT9=
EXTT10=
EXTT11=
PLAYORDER=
